# xmcd
#
# Track frame offsets: 
#        183
#        9933
#        24233
#        34870
#        44793
#        57945
#        72000
#        86128
#        98105
#        109428
#        143015
#        153663
#        163465
#        176163
#        188078
#        199620
#        209620
#        226338
#        242008
#        252290
#        264683
#        276870
#
# Disc length: 3858 seconds
#
# Revision: 3
# Processed by: cddbd v1.5.2PL0 Copyright (c) Steve Scherf et al.
# Submitted via: ExactAudioCopyFreeDBPlugin 1.0
#
DISCID=420f1016
DTITLE=Buddy Guy - Stone Crazy
DYEAR=1988
DGENRE=Blues
TTITLE0=Slop Around
TTITLE1=Broken Hearted Blues
TTITLE2=I Got My Eyes On You
TTITLE3=First Time I Met The Blues
TTITLE4=Let Me Love You Baby
TTITLE5=I Got A Strange Feeling
TTITLE6=Hully Gully
TTITLE7=Ten Years Ago
TTITLE8=Watch Yourself
TTITLE9=Stone Crazy
TTITLE10=Hard But It's Fair
TTITLE11=Baby
TTITLE12=When My Left Eye Jumps
TTITLE13=That's It
TTITLE14=No Lie
TTITLE15=$100 Bill
TTITLE16=Every Girl I See
TTITLE17=Leave My Girl Alone
TTITLE18=She Suits Me To A Tee
TTITLE19=Mother-In-Law Blues
TTITLE20=Goin' Home
TTITLE21=I Suffer With The Blues
EXTD=YEAR: 1988
EXTT0=
EXTT1=
EXTT2=
EXTT3=
EXTT4=
EXTT5=
EXTT6=
EXTT7=
EXTT8=
EXTT9=
EXTT10=
EXTT11=
EXTT12=
EXTT13=
EXTT14=
EXTT15=
EXTT16=
EXTT17=
EXTT18=
EXTT19=
EXTT20=
EXTT21=
PLAYORDER=
